<svg width="25" height="25" xmlns="http://www.w3.org/2000/svg"><path d="M19.69 24.485a9.229 9.229 0 01-3.31.129c-2.209-.305-4.202-1.154-6.069-2.296-3.016-1.844-5.462-4.263-7.396-7.173C1.712 13.336.816 11.388.407 9.247.094 7.607.139 5.982.72 4.387c.264-.726.639-1.368 1.294-1.845.812-.591 1.639-1.144 2.62-1.424.279-.08.57-.128.858-.168.418-.056.706.162.936.467.575.765 1.022 1.602 1.4 2.473.324.749.61 1.513.915 2.27.172.428.107.837-.201 1.17a9.36 9.36 0 01-1.037.943c-.33.264-.705.474-1.047.725a3.195 3.195 0 00-.478.448c-.358.4-.384.866-.247 1.35.187.66.512 1.258.902 1.816a22.92 22.92 0 005.545 5.59c.527.374 1.087.7 1.712.91.805.272 1.437.098 1.963-.579.365-.469.707-.954 1.07-1.424.247-.32.562-.562.933-.738.234-.11.472-.147.711-.063 1.76.616 3.469 1.334 4.98 2.425.45.325.603.787.48 1.33-.198.882-.693 1.622-1.21 2.348-.185.26-.412.492-.601.75-.502.682-1.224 1.005-2.018 1.214-.168.045-.34.074-.51.11" fill="#6735B9" fill-rule="evenodd"/></svg>