<svg width="34" height="24" xmlns="http://www.w3.org/2000/svg" xmlns:xlink="http://www.w3.org/1999/xlink"><defs><path id="a" d="M.024.052h29.973v13.844H.024z"/><path id="c" d="M.002.188h29.99V9H.002z"/></defs><g fill="none" fill-rule="evenodd"><g transform="translate(2 .846)"><mask id="b" fill="#fff"><use xlink:href="#a"/></mask><path d="M.024.164C.44.12.768.058 1.094.058 8.608.052 16.122.054 23.636.054c1.79 0 3.58-.005 5.37.004.304.002.607.065 1.018.112-.507.518-.93.954-1.358 1.388L22.635 7.67c-1.76 1.783-3.503 3.586-5.284 5.343-1.397 1.378-3.267 1.392-4.66.004-2.757-2.747-5.476-5.54-8.21-8.313L.2.368C.17.335.141.298.024.164" fill="#6735B9" mask="url(#b)"/></g><g transform="translate(2 14.846)"><mask id="d" fill="#fff"><use xlink:href="#c"/></mask><path d="M11.563.188c1.99 1.625 4.763 1.713 6.888.003 3.843 2.856 7.692 5.718 11.54 8.58l.001.106c-.337.04-.674.112-1.012.115-1.57.012-3.14.007-4.71.007-7.713 0-15.426 0-23.14-.006-.37 0-.74-.065-1.11-.1l-.018-.11L11.563.188" fill="#6735B9" mask="url(#d)"/></g><path d="M12 14.1C8.102 17.034 4.254 19.93.377 22.846.16 22.421 0 22.018 0 21.557c.003-4.647.002-9.294.002-13.941 0-1.234-.008-2.468.01-3.702.004-.325.09-.648.153-1.068L12 14.1M33.84 2.846c.062.473.15.843.15 1.213.009 5.706.003 11.411.01 17.117 0 .576-.07 1.122-.377 1.67L22 14.104c3.929-3.735 7.998-7.91 12-11.715" fill="#6735B9"/></g></svg>